<?xml version="1.0" encoding="UTF-8"?>
<svg version="1.1" viewBox="0 0 48 48" xmlns="http://www.w3.org/2000/svg">
  <g transform="translate(.83605 -.0091375)">
    <path d="m3.3616 11.974c-0.48209 8.0174-0.48209 16.035 0 24.052 0.26518 4.41 4.1772 7.3488 8.586 7.0966 8.0202-0.45878 16.04 0.21849 24.061 0.62012 4.4106 0.22087 7.327-3.278 7.1066-7.6873-0.37233-7.4489 0.2069-15.849 0.59935-24.063 0.2108-4.4119-3.2964-7.9382-7.7089-7.7169-8.0193 0.40214-16.039 1.0364-24.058 0.58068-4.4074-0.25048-8.3205 2.7078-8.5857 7.1178z" fill="#535b77" style="font-variation-settings:'wght' 500;paint-order:stroke fill markers"/>
    <path d="m31 10a7 7 0 0 0-7 7v3s0 2-1 3-3 1-3 1h-3a7 7 0 0 0-7 7v7h7a7 7 0 0 0 7-7v-3s0-2 1-3 3-1 3-1h3a7 7 0 0 0 7-7v-7z" fill="#dae2e6" style="font-variation-settings:'wght' 500;paint-order:stroke fill markers"/>
  </g>
</svg>
